<?xml version="1.0" encoding="UTF-8"?>
<svg width="275px" height="60px" viewBox="0 0 275 60" version="1.1" xmlns="http://www.w3.org/2000/svg" xmlns:xlink="http://www.w3.org/1999/xlink">
    <!-- Generator: Sketch 55.2 (78181) - https://sketchapp.com -->
    <title>logo color</title>
    <desc>Created with Sketch.</desc>
    <defs>
        <polygon id="path-1" points="0 0.4074 56.1858 0.4074 56.1858 58.8994 0 58.8994"></polygon>
        <polygon id="path-3" points="0.1062 0.909 26.1842 0.909 26.1842 27.4696 0.1062 27.4696"></polygon>
    </defs>
    <g id="website" stroke="none" stroke-width="1" fill="none" fill-rule="evenodd">
        <g id="Desktop---Contact--Page---Form-Filled" transform="translate(-40.000000, -39.000000)">
            <g id="Header" transform="translate(0.000000, -1.000000)">
                <g id="logo-color" transform="translate(40.000000, 39.000000)">
                    <g id="Group-3" transform="translate(0.000000, 1.091000)">
                        <mask id="mask-2" fill="white">
                            <use xlink:href="#path-1"></use>
                        </mask>
                        <g id="Clip-2"></g>
                        <path d="M56.1858,58.8994 L37.8168,58.8994 C32.8598,58.8994 28.3218,56.1164 26.0758,51.6964 L4.0268,8.3274 L-0.0002,0.4074 L18.3698,0.4074 C23.3268,0.4074 27.8648,3.1914 30.1108,7.6104 L51.1098,48.9144 L56.1858,58.8994 Z" id="Fill-1" fill="#F05A38" mask="url(#mask-2)"></path>
                    </g>
                    <path d="M97.6214,59.9904 L79.2524,59.9904 C74.2944,59.9904 69.7574,57.2074 67.5104,52.7874 L41.4344,1.4984 L59.8044,1.4984 C64.7624,1.4984 69.2994,4.2824 71.5464,8.7014 L97.6214,59.9904 Z" id="Fill-4" fill="#F05A38"></path>
                    <path d="M110.9036,13.0329 C110.9036,19.6229 105.5606,24.9659 98.9706,24.9659 C92.3816,24.9659 87.0386,19.6229 87.0386,13.0329 C87.0386,6.4429 92.3816,1.0999 98.9706,1.0999 C105.5606,1.0999 110.9036,6.4429 110.9036,13.0329" id="Fill-6" fill="#F05A38"></path>
                    <polygon id="Fill-8" fill="#B4B2B2" points="113.6233 59.966 102.5673 38.048 144.0113 38.048 144.0113 59.99"></polygon>
                    <path d="M144.011,1.5002 L119.424,1.5002 C121.351,4.9092 122.463,8.8382 122.463,13.0332 C122.463,17.2182 121.357,21.1392 119.44,24.5422 L144.011,24.5662 L144.011,1.5002 Z" id="Fill-10" fill="#B4B2B2"></path>
                    <path d="M170.5764,48.8967 L170.5764,55.0137 L174.2094,55.0137 C175.9264,55.0137 177.1624,54.7757 177.9164,54.2987 C178.6704,53.8237 179.0464,52.9987 179.0464,51.8257 C179.0464,50.9237 178.6884,50.2087 177.9724,49.6847 C177.2554,49.1587 176.2974,48.8967 175.0984,48.8967 L170.5764,48.8967 Z M170.5764,38.6097 L170.5764,44.1507 L173.9494,44.1507 C174.9874,44.1507 175.7974,43.8857 176.3784,43.3547 C176.9584,42.8227 177.2484,42.1557 177.2484,41.3527 C177.2484,40.5617 176.9584,39.9067 176.3784,39.3877 C175.7974,38.8697 174.9874,38.6097 173.9494,38.6097 L170.5764,38.6097 Z M164.1264,33.8647 L175.3214,33.8647 C177.9894,33.8647 180.0874,34.5067 181.6134,35.7907 C183.1394,37.0747 183.9024,38.5937 183.9024,40.3457 C183.9024,42.5937 182.7224,44.3157 180.3624,45.5137 C182.1414,45.9837 183.5044,46.8127 184.4494,47.9997 C185.3944,49.1867 185.8674,50.5707 185.8674,52.1537 C185.8674,54.4037 185.0954,56.2337 183.5504,57.6437 C182.0054,59.0537 179.7324,59.7577 176.7294,59.7577 L164.1264,59.7577 L164.1264,33.8647 Z" id="Fill-12" fill="#323232"></path>
                    <path d="M204.8235,50.1194 L200.6265,40.0564 L196.8235,50.1194 L204.8235,50.1194 Z M204.2785,33.8654 L215.7785,59.7584 L208.8435,59.7584 L206.7095,54.6414 L195.1135,54.6414 L193.1795,59.7584 L186.3445,59.7584 L196.8035,33.8654 L204.2785,33.8654 Z" id="Fill-14" fill="#323232"></path>
                    <path d="M235.76,33.865 L242.211,33.865 L242.211,48.563 C242.211,52.344 241.092,55.21 238.856,57.163 C236.619,59.115 233.425,60.091 229.274,60.091 C225.171,60.091 221.987,59.103 219.719,57.125 C217.451,55.149 216.318,52.307 216.318,48.6 L216.318,33.865 L222.786,33.865 L222.786,48.748 C222.786,50.552 223.376,51.998 224.556,53.085 C225.737,54.173 227.283,54.717 229.199,54.717 C231.189,54.717 232.78,54.16 233.972,53.048 C235.164,51.936 235.76,50.355 235.76,48.303 L235.76,33.865 Z" id="Fill-16" fill="#323232"></path>
                    <polygon id="Fill-18" fill="#323232" points="260.7629 43.466 269.0849 33.865 274.6919 33.865 274.6919 59.758 268.2419 59.758 268.2419 43.595 261.2459 51.714 260.2779 51.714 253.2839 43.595 253.2839 59.758 246.8339 59.758 246.8339 33.865 252.4349 33.865"></polygon>
                    <polygon id="Fill-20" fill="#323232" points="183.3743 10.6755 175.3573 27.5605 172.5773 27.5605 161.1973 1.3345 168.0483 1.3345 174.1443 15.6275 180.7893 1.3345 185.9863 1.3345 192.6423 15.6275 198.6873 1.3345 205.5323 1.3345 194.2083 27.5605 191.4283 27.5605"></polygon>
                    <g id="Group-24" transform="translate(204.000000, 0.091000)">
                        <mask id="mask-4" fill="white">
                            <use xlink:href="#path-3"></use>
                        </mask>
                        <g id="Clip-23"></g>
                        <path d="M11.3372,10.6206 C13.0552,9.6206 13.9132,8.5336 13.9132,7.3596 C13.9132,6.7296 13.6912,6.2106 13.2462,5.8026 C12.8022,5.3946 12.2272,5.1906 11.5232,5.1906 C10.8312,5.1906 10.2602,5.3796 9.8082,5.7556 C9.3582,6.1336 9.1322,6.6056 9.1322,7.1746 C9.1322,8.1626 9.8662,9.3116 11.3372,10.6206 M13.4322,21.7426 L8.8352,16.6636 C7.0682,17.8006 6.1852,18.9626 6.1852,20.1486 C6.1852,20.9756 6.5062,21.6896 7.1492,22.2896 C7.7912,22.8886 8.5572,23.1876 9.4472,23.1876 C10.6952,23.1876 12.0242,22.7056 13.4322,21.7426 M20.6422,13.6986 L26.1842,13.6986 C24.7132,17.1086 22.9772,19.6906 20.9762,21.4456 L26.1842,27.1366 L18.3252,27.1366 L16.4352,25.0786 C13.9262,26.6726 11.2142,27.4696 8.2982,27.4696 C5.9502,27.4696 3.9982,26.8176 2.4412,25.5136 C0.8842,24.2106 0.1062,22.5886 0.1062,20.6486 C0.1062,17.7326 2.0392,15.2916 5.9072,13.3286 C4.3382,11.1776 3.5532,9.2626 3.5532,7.5816 C3.5532,5.6666 4.3002,4.0766 5.7962,2.8086 C7.2902,1.5416 9.1882,0.9086 11.4852,0.9086 C13.6862,0.9086 15.4832,1.4876 16.8792,2.6416 C18.2752,3.7976 18.9742,5.2716 18.9742,7.0626 C18.9742,9.5836 17.3672,11.7956 14.1542,13.6986 L17.6762,17.7576 C18.7882,16.6446 19.7762,15.2916 20.6422,13.6986" id="Fill-22" fill="#323232" mask="url(#mask-4)"></path>
                    </g>
                    <polygon id="Fill-25" fill="#323232" points="252.7825 22.4821 252.7825 27.2271 233.6915 27.2271 233.6915 1.3341 252.5225 1.3341 252.5225 6.0791 240.1415 6.0791 240.1415 11.5091 251.9485 11.5091 251.9485 16.2541 240.1415 16.2541 240.1415 22.4821"></polygon>
                </g>
            </g>
        </g>
    </g>
</svg>